<svg xmlns="http://www.w3.org/2000/svg" viewBox="0 0 104 104" width="100%">
  <defs>
    <!-- ct-* 系列通用：圆弧角方框柔和投影 -->
    <filter id="logoShadow" x="-30%" y="-30%" width="160%" height="160%">
      <feDropShadow dx="0" dy="2.5" stdDeviation="2.5" flood-color="#1C6DD0" flood-opacity="0.30"/>
    </filter>
    <marker id="arw" markerWidth="8" markerHeight="8" refX="4.5" refY="4" orient="auto">
      <path d="M0,0 L8,4 L0,8 Z" fill="#1C6DD0"/>
    </marker>
  </defs>

  <!-- 整体圆弧角方框（含柔和投影） -->
  <rect x="-52" y="-52" width="104" height="104" rx="20" fill="#EEEDFE" stroke="#C5DCF5" stroke-width="0.5" transform="translate(52,52)" filter="url(#logoShadow)"/>

  <!-- 左上角统一文字（ct-* 系列通用） -->
  <g transform="translate(7,13)">
    <text font-family="'Arial Black','Helvetica Neue',Arial,sans-serif" font-size="16" font-weight="900" font-style="italic" fill="#1C6DD0" stroke="#1C6DD0" stroke-width="0.25" paint-order="stroke" stroke-linejoin="round">Clinical</text>
    <text y="12" font-family="'Arial Black','Helvetica Neue',Arial,sans-serif" font-size="16" font-weight="900" font-style="italic" fill="#1C6DD0" stroke="#1C6DD0" stroke-width="0.25" paint-order="stroke" stroke-linejoin="round">Trial</text>
  </g>

  <!-- ct-advisor 融合版: 中心罗盘枢纽(总入口/方法学导航) + 四周子技能路由 -->
  <!-- 放射连线: 中心向四周子技能分发 (箭头朝外 = 路由/分发) -->
  <g fill="none" stroke="#1C6DD0" stroke-width="1.8" stroke-linecap="round" marker-end="url(#arw)">
    <path d="M54 62 L32 47"/>
    <path d="M54 62 L76 47"/>
    <path d="M54 62 L36 83"/>
    <path d="M54 62 L72 83"/>
  </g>

  <!-- 子技能节点 (3 色辅助色: registry / safety / literature) -->
  <circle cx="32" cy="47" r="6" fill="#9FE1CB" stroke="#1C6DD0" stroke-width="1.8"/>
  <circle cx="76" cy="47" r="6" fill="#D85A30" stroke="#1C6DD0" stroke-width="1.8"/>
  <circle cx="36" cy="83" r="6" fill="#AFA9EC" stroke="#1C6DD0" stroke-width="1.8"/>
  <circle cx="72" cy="83" r="6" fill="#C5DCF5" stroke="#1C6DD0" stroke-width="1.8"/>

  <!-- 中心罗盘枢纽 (advisor 总入口 / 方法学导航) -->
  <g transform="translate(54,62)">
    <circle r="18" fill="#1C6DD0" stroke="#1657A8" stroke-width="1"/>
    <circle r="13" fill="none" stroke="#FFFFFF" stroke-width="1.2" opacity="0.9"/>
    <!-- 四向指针 (上北橙红 / 下南青绿 / 左紫 / 右浅蓝, 与子技能节点呼应) -->
    <path d="M0 -11 L3 0 L0 0 Z" fill="#D85A30"/>
    <path d="M0 11 L-3 0 L0 0 Z" fill="#9FE1CB"/>
    <path d="M-11 0 L0 -3 L0 0 Z" fill="#AFA9EC"/>
    <path d="M11 0 L0 3 L0 0 Z" fill="#C5DCF5"/>
    <circle r="2.4" fill="#FFFFFF"/>
  </g>
</svg>
